<svg width="1280" height="720" viewBox="0 0 1280 720" fill="none" xmlns="http://www.w3.org/2000/svg">
  <defs>
    <linearGradient id="grad4" x1="0%" y1="0%" x2="100%" y2="100%">
      <stop offset="0%" style="stop-color:#7c3aed;stop-opacity:1" />
      <stop offset="100%" style="stop-color:#2563eb;stop-opacity:1" />
    </linearGradient>
  </defs>
  <rect width="1280" height="720" fill="url(#grad4)"/>
  <rect x="40" y="40" width="1200" height="80" rx="8" fill="rgba(255,255,255,0.2)"/>
  <rect x="40" y="140" width="600" height="540" rx="8" fill="rgba(255,255,255,0.15)"/>
  <rect x="660" y="140" width="580" height="540" rx="8" fill="rgba(255,255,255,0.15)"/>
  <text x="640" y="95" font-family="Arial, sans-serif" font-size="24" font-weight="bold" fill="white" text-anchor="middle">Telemedicina</text>
  <rect x="80" y="180" width="520" height="400" rx="4" fill="rgba(0,0,0,0.3)"/>
  <circle cx="340" cy="380" r="80" fill="rgba(255,255,255,0.2)"/>
  <rect x="300" cy="340" width="80" height="80" rx="40" fill="rgba(255,255,255,0.3)"/>
  <text x="340" y="500" font-family="Arial, sans-serif" font-size="16" fill="white" text-anchor="middle">Dr. João Silva</text>
  <text x="340" y="525" font-family="Arial, sans-serif" font-size="14" fill="rgba(255,255,255,0.8)" text-anchor="middle">Cardiologista</text>
  <rect x="700" y="180" width="500" height="200" rx="4" fill="rgba(255,255,255,0.2)"/>
  <text x="950" y="220" font-family="Arial, sans-serif" font-size="16" font-weight="bold" fill="white" text-anchor="middle">Informações da Consulta</text>
  <rect x="720" y="250" width="460" height="30" rx="4" fill="rgba(255,255,255,0.15)"/>
  <rect x="720" y="300" width="460" height="30" rx="4" fill="rgba(255,255,255,0.15)"/>
  <rect x="720" y="350" width="460" height="30" rx="4" fill="rgba(255,255,255,0.15)"/>
  <text x="950" y="270" font-family="Arial, sans-serif" font-size="12" fill="white" text-anchor="middle">Paciente: Maria Santos</text>
  <text x="950" y="320" font-family="Arial, sans-serif" font-size="12" fill="white" text-anchor="middle">Data: 26/11/2025 - 14:00</text>
  <text x="950" y="370" font-family="Arial, sans-serif" font-size="12" fill="white" text-anchor="middle">Status: Em andamento</text>
  <rect x="700" y="400" width="500" height="250" rx="4" fill="rgba(255,255,255,0.2)"/>
  <text x="950" y="440" font-family="Arial, sans-serif" font-size="16" font-weight="bold" fill="white" text-anchor="middle">Chat e Anotações</text>
  <rect x="720" y="460" width="460" height="40" rx="4" fill="rgba(255,255,255,0.15)"/>
  <rect x="720" y="520" width="460" height="40" rx="4" fill="rgba(255,255,255,0.15)"/>
  <rect x="720" y="580" width="460" height="40" rx="4" fill="rgba(255,255,255,0.15)"/>
  <text x="950" y="485" font-family="Arial, sans-serif" font-size="12" fill="white" text-anchor="middle">Mensagens da consulta...</text>
  <rect x="700" y="660" width="240" height="40" rx="4" fill="rgba(59,130,246,0.4)"/>
  <text x="820" y="685" font-family="Arial, sans-serif" font-size="14" font-weight="bold" fill="white" text-anchor="middle">Enviar Mensagem</text>
  <rect x="960" y="660" width="240" height="40" rx="4" fill="rgba(124,58,237,0.4)"/>
  <text x="1080" y="685" font-family="Arial, sans-serif" font-size="14" font-weight="bold" fill="white" text-anchor="middle">Finalizar Consulta</text>
</svg>

