<svg width="1280" height="720" viewBox="0 0 1280 720" fill="none" xmlns="http://www.w3.org/2000/svg">
  <defs>
    <linearGradient id="grad2" x1="0%" y1="0%" x2="100%" y2="100%">
      <stop offset="0%" style="stop-color:#1e40af;stop-opacity:1" />
      <stop offset="100%" style="stop-color:#6d28d9;stop-opacity:1" />
    </linearGradient>
  </defs>
  <rect width="1280" height="720" fill="url(#grad2)"/>
  <rect x="40" y="40" width="1200" height="80" rx="8" fill="rgba(255,255,255,0.2)"/>
  <rect x="40" y="140" width="300" height="540" rx="8" fill="rgba(255,255,255,0.15)"/>
  <rect x="360" y="140" width="880" height="540" rx="8" fill="rgba(255,255,255,0.15)"/>
  <text x="640" y="95" font-family="Arial, sans-serif" font-size="24" font-weight="bold" fill="white" text-anchor="middle">Agenda Inteligente</text>
  <rect x="60" y="180" width="260" height="60" rx="4" fill="rgba(255,255,255,0.2)"/>
  <rect x="60" y="260" width="260" height="60" rx="4" fill="rgba(255,255,255,0.2)"/>
  <rect x="60" y="340" width="260" height="60" rx="4" fill="rgba(255,255,255,0.2)"/>
  <rect x="60" y="420" width="260" height="60" rx="4" fill="rgba(255,255,255,0.2)"/>
  <rect x="60" y="500" width="260" height="60" rx="4" fill="rgba(255,255,255,0.2)"/>
  <rect x="60" y="580" width="260" height="60" rx="4" fill="rgba(255,255,255,0.2)"/>
  <text x="190" y="210" font-family="Arial, sans-serif" font-size="14" fill="white">Hoje</text>
  <text x="190" y="290" font-family="Arial, sans-serif" font-size="14" fill="white">Amanhã</text>
  <text x="190" y="370" font-family="Arial, sans-serif" font-size="14" fill="white">Próxima Semana</text>
  <rect x="400" y="180" width="800" height="480" rx="4" fill="rgba(255,255,255,0.1)"/>
  <rect x="420" y="200" width="760" height="40" rx="4" fill="rgba(255,255,255,0.2)"/>
  <text x="800" y="225" font-family="Arial, sans-serif" font-size="16" font-weight="bold" fill="white" text-anchor="middle">Calendário de Agendamentos</text>
  <rect x="440" y="260" width="100" height="80" rx="4" fill="rgba(255,255,255,0.25)"/>
  <rect x="560" y="260" width="100" height="80" rx="4" fill="rgba(255,255,255,0.25)"/>
  <rect x="680" y="260" width="100" height="80" rx="4" fill="rgba(255,255,255,0.25)"/>
  <rect x="800" y="260" width="100" height="80" rx="4" fill="rgba(255,255,255,0.25)"/>
  <rect x="920" y="260" width="100" height="80" rx="4" fill="rgba(255,255,255,0.25)"/>
  <rect x="1040" y="260" width="100" height="80" rx="4" fill="rgba(255,255,255,0.25)"/>
  <rect x="1160" y="260" width="100" height="80" rx="4" fill="rgba(255,255,255,0.25)"/>
  <text x="490" y="290" font-family="Arial, sans-serif" font-size="12" fill="white" text-anchor="middle">Seg</text>
  <text x="610" y="290" font-family="Arial, sans-serif" font-size="12" fill="white" text-anchor="middle">Ter</text>
  <text x="730" y="290" font-family="Arial, sans-serif" font-size="12" fill="white" text-anchor="middle">Qua</text>
  <text x="850" y="290" font-family="Arial, sans-serif" font-size="12" fill="white" text-anchor="middle">Qui</text>
  <text x="970" y="290" font-family="Arial, sans-serif" font-size="12" fill="white" text-anchor="middle">Sex</text>
  <text x="1090" y="290" font-family="Arial, sans-serif" font-size="12" fill="white" text-anchor="middle">Sáb</text>
  <text x="1210" y="290" font-family="Arial, sans-serif" font-size="12" fill="white" text-anchor="middle">Dom</text>
  <rect x="440" y="360" width="100" height="60" rx="4" fill="rgba(59,130,246,0.4)"/>
  <rect x="560" y="360" width="100" height="60" rx="4" fill="rgba(59,130,246,0.4)"/>
  <rect x="680" y="420" width="100" height="60" rx="4" fill="rgba(59,130,246,0.4)"/>
  <rect x="800" y="420" width="100" height="60" rx="4" fill="rgba(59,130,246,0.4)"/>
  <rect x="920" y="360" width="100" height="60" rx="4" fill="rgba(59,130,246,0.4)"/>
  <text x="490" y="390" font-family="Arial, sans-serif" font-size="11" fill="white" text-anchor="middle">09:00</text>
  <text x="610" y="390" font-family="Arial, sans-serif" font-size="11" fill="white" text-anchor="middle">14:30</text>
  <text x="730" y="450" font-family="Arial, sans-serif" font-size="11" fill="white" text-anchor="middle">10:00</text>
  <text x="850" y="450" font-family="Arial, sans-serif" font-size="11" fill="white" text-anchor="middle">15:00</text>
  <text x="970" y="390" font-family="Arial, sans-serif" font-size="11" fill="white" text-anchor="middle">11:00</text>
</svg>

