<svg width="1280" height="720" viewBox="0 0 1280 720" fill="none" xmlns="http://www.w3.org/2000/svg">
  <defs>
    <linearGradient id="grad1" x1="0%" y1="0%" x2="100%" y2="100%">
      <stop offset="0%" style="stop-color:#2563eb;stop-opacity:1" />
      <stop offset="100%" style="stop-color:#7c3aed;stop-opacity:1" />
    </linearGradient>
  </defs>
  <rect width="1280" height="720" fill="url(#grad1)"/>
  <rect x="40" y="40" width="1200" height="80" rx="8" fill="rgba(255,255,255,0.2)"/>
  <rect x="40" y="140" width="280" height="520" rx="8" fill="rgba(255,255,255,0.15)"/>
  <rect x="340" y="140" width="900" height="240" rx="8" fill="rgba(255,255,255,0.15)"/>
  <rect x="340" y="400" width="430" height="260" rx="8" fill="rgba(255,255,255,0.15)"/>
  <rect x="790" y="400" width="450" height="260" rx="8" fill="rgba(255,255,255,0.15)"/>
  <text x="640" y="95" font-family="Arial, sans-serif" font-size="24" font-weight="bold" fill="white" text-anchor="middle">Dashboard UpClinic</text>
  <text x="640" y="200" font-family="Arial, sans-serif" font-size="18" fill="rgba(255,255,255,0.9)" text-anchor="middle">Visão Geral do Sistema</text>
  <circle cx="180" cy="200" r="30" fill="rgba(255,255,255,0.3)"/>
  <circle cx="180" cy="280" r="30" fill="rgba(255,255,255,0.3)"/>
  <circle cx="180" cy="360" r="30" fill="rgba(255,255,255,0.3)"/>
  <rect x="60" y="450" width="240" height="40" rx="4" fill="rgba(255,255,255,0.2)"/>
  <rect x="60" y="510" width="240" height="40" rx="4" fill="rgba(255,255,255,0.2)"/>
  <rect x="60" y="570" width="240" height="40" rx="4" fill="rgba(255,255,255,0.2)"/>
  <rect x="380" y="180" width="200" height="120" rx="4" fill="rgba(255,255,255,0.25)"/>
  <rect x="600" y="180" width="200" height="120" rx="4" fill="rgba(255,255,255,0.25)"/>
  <rect x="820" y="180" width="200" height="120" rx="4" fill="rgba(255,255,255,0.25)"/>
  <rect x="1040" y="180" width="200" height="120" rx="4" fill="rgba(255,255,255,0.25)"/>
  <text x="480" y="240" font-family="Arial, sans-serif" font-size="14" fill="white" text-anchor="middle">Consultas Hoje</text>
  <text x="700" y="240" font-family="Arial, sans-serif" font-size="14" fill="white" text-anchor="middle">Pacientes</text>
  <text x="920" y="240" font-family="Arial, sans-serif" font-size="14" fill="white" text-anchor="middle">Receita</text>
  <text x="1140" y="240" font-family="Arial, sans-serif" font-size="14" fill="white" text-anchor="middle">Agendamentos</text>
  <text x="550" y="500" font-family="Arial, sans-serif" font-size="16" fill="white" text-anchor="middle">Gráfico de Atendimentos</text>
  <text x="1015" y="500" font-family="Arial, sans-serif" font-size="16" fill="white" text-anchor="middle">Próximos Agendamentos</text>
</svg>
